<?xml version="1.0" encoding="UTF-8" standalone="no"?>

<svg xmlns="http://www.w3.org/2000/svg" version="1.1" xmlns:xlink="http://www.w3.org/1999/xlink" xmlns:svgjs="http://svgjs.dev/svgjs" width="2000" height="2176" viewBox="0 0 2000 2176"><g transform="matrix(1,0,0,1,-0.2267147527816178,0.8825984796276316)"><svg viewBox="0 0 227 247" data-background-color="#ffffff" preserveAspectRatio="xMidYMid meet" height="2176" width="2000" xmlns="http://www.w3.org/2000/svg" xmlns:xlink="http://www.w3.org/1999/xlink"><g id="tight-bounds" transform="matrix(1,0,0,1,0.025891275252973855,-0.09997365579206985)"><svg viewBox="0 0 226.9483766003063 247.2" height="247.2" width="226.9483766003063"><g><svg viewBox="0 0 226.9483766003063 247.2" height="247.2" width="226.9483766003063"><g><svg viewBox="0 0 226.9483766003063 247.2" height="247.2" width="226.9483766003063"><g id="textblocktransform"><svg viewBox="0 0 226.9483766003063 247.2" height="247.2" width="226.9483766003063" id="textblock"><g><svg viewBox="0 0 226.9483766003063 247.2" height="247.2" width="226.9483766003063"><path d="M226.417 53.02C225.35 27.36 222.309 20.227 222.309 20.227 212.974-6.202 201.323-0.506 190.856 3.292 172.377 3.446 153.972 9.091 135.536 12.119 96.838 12.581 57.81 4.986 19.304 23.717 15.687 29.464-3.752 24.846 0.643 56.304 1.796 69.39 5.999 83.913 5.871 95.922 6.447 98.026 7.248 93.202 7.589 96.23 8.784 104.39 10.737 100.541 12.337 105.365 10.107 118.246 11.707 128.971 13.233 140.21 10.544 143.135 7.098 141.749 5.551 151.449 5.391 158.479 4.527 157.145 3.577 156.837 2.884 156.632 1.486 157.402 1.721 159.608 2.521 167.152-0.914 171.514 1.241 178.904-0.242 186.91 2.265 193.838 1.924 202.511 1.881 204.255 2.116 205.744 2.489 206.154 4.143 208.361 1.732 212.672 1.988 217.342 18.952 249.262 37.357 227.195 54.737 241.872 59.25 231.608 55.857 245.516 57.66 243.36 59.069 240.846 60.093 251.263 61.683 245.362 61.928 243.668 61.555 239.665 62.429 240.435 62.888 240.846 63.294 240.743 63.358 238.382 63.454 234.841 62.611 237.048 62.387 235.201 64.809 225.861 64.211 248.081 66.484 247.158 66.377 244.438 65.716 240.538 67.071 241.051 68.415 237.151 68.458 233.918 69.653 242.693 69.695 244.592 69.909 245.926 70.25 246.85 73.984 237.305 77.697 250.237 81.613 245.926 84.013 241.205 86.318 248.492 88.751 246.696 89.604 245.259 90.468 242.693 91.29 247.004 101.351 247.928 112.074 244.079 121.612 247.158 147.101 241.41 174.34 249.518 201.216 241.923 207.554 238.998 214.137 234.841 220.314 231.506 220.314 231.506 225.318 222.371 225.318 181.316S226.385 145.393 226.545 112.703C226.705 80.013 227.452 78.679 226.385 53.02Z" opacity="1" fill="#c30027" data-fill-palette-color="tertiary"></path><g transform="matrix(1,0,0,1,55.76832,26.230666666666668)"><svg width="115.41173660030628" viewBox="2.1 -32.3 19.349999999999998 32.65" height="194.73866666666666" data-palette-color="#ffffff"><path d="M13.35-32.3Q16.8-32.3 20.5-30.8L20.5-30.8 19.85-26.95 19.15-26.75Q17.7-27.85 16.07-28.45 14.45-29.05 12.85-29.05L12.85-29.05Q11-29.05 9.63-28.3 8.25-27.55 7.53-26.35 6.8-25.15 6.8-23.85L6.8-23.85Q6.8-22.5 7.63-21.48 8.45-20.45 9.7-19.7 10.95-18.95 13.1-17.9L13.1-17.9Q15.8-16.65 17.45-15.58 19.1-14.5 20.28-12.85 21.45-11.2 21.45-8.85L21.45-8.85Q21.45-6.35 20.1-4.25 18.75-2.15 16.3-0.9 13.85 0.35 10.7 0.35L10.7 0.35Q8.6 0.35 6.33-0.23 4.05-0.8 2.1-1.9L2.1-1.9 2.6-6 3.15-6.25Q4.9-4.55 7.03-3.73 9.15-2.9 11.1-2.9L11.1-2.9Q13-2.9 14.48-3.65 15.95-4.4 16.73-5.65 17.5-6.9 17.5-8.3L17.5-8.3Q17.5-10.4 15.9-11.68 14.3-12.95 11.05-14.45L11.05-14.45Q8.4-15.75 6.8-16.78 5.2-17.8 4.05-19.43 2.9-21.05 2.9-23.4L2.9-23.4Q2.9-25.85 4.23-27.9 5.55-29.95 7.93-31.13 10.3-32.3 13.35-32.3L13.35-32.3Z" opacity="1" transform="matrix(1,0,0,1,0,0)" fill="#ffffff" class="wordmark-text-0" data-fill-palette-color="quaternary" id="text-0"></path></svg></g></svg></g></svg></g></svg></g><g></g></svg></g><defs></defs></svg><rect width="226.9483766003063" height="247.2" fill="none" stroke="none" visibility="hidden"></rect></g></svg></g></svg>